<?xml version="1.0" encoding="utf-8"?>
<!-- Generator: Adobe Illustrator 18.1.1, SVG Export Plug-In . SVG Version: 6.00 Build 0)  -->
<!DOCTYPE svg PUBLIC "-//W3C//DTD SVG 1.1//EN" "http://www.w3.org/Graphics/SVG/1.1/DTD/svg11.dtd">
<svg version="1.1" id="Layer_1" xmlns="http://www.w3.org/2000/svg" xmlns:xlink="http://www.w3.org/1999/xlink" x="0px" y="0px"
	 viewBox="0 0 905.7 174" enable-background="new 0 0 905.7 174" xml:space="preserve">
<g>
	<path fill="#0C38C6" d="M56.9,46.8c13.7,0,20.7,8.2,20.7,22.5v2.8H64.4v-3.7c0-6.4-2.6-8.8-7-8.8c-4.5,0-7,2.4-7,8.8
		c0,18.4,27.5,21.9,27.5,47.5c0,14.3-7.2,22.5-21,22.5s-21-8.2-21-22.5v-5.5h13.3v6.4c0,6.4,2.8,8.7,7.3,8.7c4.5,0,7.3-2.3,7.3-8.7
		c0-18.4-27.5-21.9-27.5-47.5C36.2,55,43.3,46.8,56.9,46.8z"/>
	<path fill="#0C38C6" d="M97.4,85.6h19.3v12.8H97.4v26.2h24.3v12.8H83.3V47.8h38.4v12.8H97.4V85.6z"/>
	<path fill="#0C38C6" d="M173.4,137.3h-14.2l-2.4-16.2h-17.3l-2.4,16.2h-12.9l14.3-89.5H159L173.4,137.3z M141.3,109h13.6L148,63.7
		L141.3,109z"/>
	<path fill="#0C38C6" d="M189.9,72.5v64.8h-12.7V47.8h17.6l14.4,53.6V47.8h12.5v89.5h-14.4L189.9,72.5z"/>
	<path fill="#0C38C6" d="M287.5,104v11.9c0,14.3-7.2,22.5-21,22.5c-13.8,0-21-8.2-21-22.5V69.3c0-14.3,7.2-22.5,21-22.5
		c13.8,0,21,8.2,21,22.5V78h-13.3v-9.6c0-6.4-2.8-8.8-7.3-8.8c-4.5,0-7.3,2.4-7.3,8.8v48.3c0,6.4,2.8,8.7,7.3,8.7
		c4.5,0,7.3-2.3,7.3-8.7V104H287.5z"/>
	<path fill="#0C38C6" d="M339.1,137.3h-14.2l-2.4-16.2h-17.3l-2.4,16.2h-12.9l14.3-89.5h20.6L339.1,137.3z M307,109h13.6l-6.8-45.3
		L307,109z"/>
	<path fill="#0C38C6" d="M355.6,72.5v64.8h-12.7V47.8h17.6l14.4,53.6V47.8h12.5v89.5h-14.4L355.6,72.5z"/>
	<path fill="#0C38C6" d="M395.1,61.4V47.8h13.6V60l-6.1,14.2h-5.8l3.7-12.8H395.1z"/>
	<path fill="#0C38C6" d="M412.3,47.8h43.5v12.8H441v76.7H427V60.6h-14.7V47.8z"/>
	<path fill="#0C38C6" d="M489.8,107.7L472,47.8h14.7l10.7,40.8l10.7-40.8h13.4l-17.8,59.9v29.7h-14.1V107.7z"/>
	<path fill="#0C38C6" d="M564,137.3h-14.2l-2.4-16.2h-17.3l-2.4,16.2h-12.9l14.3-89.5h20.6L564,137.3z M531.9,109h13.6l-6.8-45.3
		L531.9,109z"/>
	<path fill="#0C38C6" d="M599.2,89.6l-5.1,47.7h-19.3l-10-89.5h13.7l7.5,70.6l6.8-70.6h13.6l7,71.1l7.3-71.1h12.3l-10,89.5h-18.7
		L599.2,89.6z"/>
	<path fill="#0C38C6" d="M650,72.5v64.8h-12.7V47.8H655l14.5,53.6V47.8H682v89.5h-14.5L650,72.5z"/>
	<path fill="#0C38C6" d="M703.1,123.8v13.6h-13.5v-13.6H703.1z"/>
	<path fill="#0C38C6" d="M750.3,104v11.9c0,14.3-7.2,22.5-21,22.5c-13.8,0-21-8.2-21-22.5V69.3c0-14.3,7.2-22.5,21-22.5
		c13.8,0,21,8.2,21,22.5V78H737v-9.6c0-6.4-2.8-8.8-7.3-8.8s-7.3,2.4-7.3,8.8v48.3c0,6.4,2.8,8.7,7.3,8.7s7.3-2.3,7.3-8.7V104H750.3
		z"/>
	<path fill="#0C38C6" d="M755.2,69.3c0-14.3,7.6-22.5,21.4-22.5c13.8,0,21.3,8.2,21.3,22.5v46.6c0,14.3-7.5,22.5-21.3,22.5
		c-13.8,0-21.4-8.2-21.4-22.5V69.3z M769.2,116.8c0,6.4,2.8,8.8,7.3,8.8c4.5,0,7.3-2.4,7.3-8.8V68.4c0-6.4-2.8-8.8-7.3-8.8
		c-4.5,0-7.3,2.4-7.3,8.8V116.8z"/>
	<path fill="#0C38C6" d="M834.2,111.4l9.6-63.6h19.6v89.5h-13.3V73.2l-9.7,64.2h-13.3l-10.5-63.3v63.3h-12.3V47.8h19.6L834.2,111.4z
		"/>
</g>
</svg>
